<?xml version="1.0" encoding="UTF-8" standalone="no"?>
<!-- Created with Inkscape (http://www.inkscape.org/) -->

<svg
   width="13.999217mm"
   height="13.998934mm"
   viewBox="0 0 13.999217 13.998934"
   version="1.1"
   id="svg5"
   inkscape:version="1.1.1 (c3084ef, 2021-09-22)"
   sodipodi:docname="thumbs-up.svg"
   xmlns:inkscape="http://www.inkscape.org/namespaces/inkscape"
   xmlns:sodipodi="http://sodipodi.sourceforge.net/DTD/sodipodi-0.dtd"
   xmlns="http://www.w3.org/2000/svg"
   xmlns:svg="http://www.w3.org/2000/svg">
  <sodipodi:namedview
     id="namedview7"
     pagecolor="#505050"
     bordercolor="#ffffff"
     borderopacity="1"
     inkscape:pageshadow="0"
     inkscape:pageopacity="0"
     inkscape:pagecheckerboard="1"
     inkscape:document-units="mm"
     showgrid="false"
     inkscape:zoom="0.77771465"
     inkscape:cx="12.858186"
     inkscape:cy="577.97548"
     inkscape:window-width="2409"
     inkscape:window-height="1081"
     inkscape:window-x="0"
     inkscape:window-y="23"
     inkscape:window-maximized="0"
     inkscape:current-layer="layer1"
     fit-margin-top="0"
     fit-margin-left="0"
     fit-margin-right="0"
     fit-margin-bottom="0" />
  <defs
     id="defs2" />
  <g
     inkscape:label="Layer 1"
     inkscape:groupmode="layer"
     id="layer1"
     transform="translate(-0.10641977,-0.29657915)">
    <path
       style="fill:none;stroke:#000000;stroke-width:0.341523;stroke-miterlimit:4;stroke-dasharray:none;stroke-opacity:1"
       d="m 6.1871597,13.485321 c -0.86873,-0.316667 -1.745357,-0.576073 -1.94806,-0.576468 -0.335622,-6.46e-4 -0.368552,-0.278773 -0.368552,-3.1126884 v -3.111973 l 1.415523,-1.699116 c 0.892948,-1.071843 1.575684,-2.12969 1.849356,-2.865441 0.575873,-1.54818795 0.661402,-1.65229395 1.35744,-1.65229395 1.501428,0 2.1336563,1.65433695 1.298337,3.39733595 -0.700765,1.462237 -0.700646,1.462354 1.4503803,1.462354 1.64411,0 1.953989,0.05407 2.337242,0.407813 0.352549,0.32541 0.414974,0.551277 0.308914,1.117732 -0.492867,2.513648 -0.533505,3.035154 -1.217172,5.9583704 -1.392301,1.458785 -3.5603873,1.739871 -6.4834083,0.674375 z"
       id="path886"
       sodipodi:nodetypes="ssscscssscccs" />
    <path
       style="fill:none;stroke:#000000;stroke-width:0.341523;stroke-linecap:butt;stroke-linejoin:miter;stroke-miterlimit:4;stroke-dasharray:none;stroke-opacity:1"
       d="m 8.6320627,0.53130865 c 0.971117,0.08316 0.52406,1.45114295 0.52406,1.45114295 l -1.289995,1.56277 c -1.547836,0.03925 -0.708151,-0.584561 -1.04812,-0.706968"
       id="path1565"
       sodipodi:nodetypes="cccc" />
    <rect
       style="fill:none;fill-opacity:0.800885;stroke:#000000;stroke-width:0.389704;stroke-linecap:round;stroke-miterlimit:4;stroke-dasharray:none;stroke-opacity:1"
       id="rect1836"
       width="3.5550032"
       height="7.3782034"
       x="0.30127177"
       y="6.6973658" />
  </g>
</svg>
