<?xml version="1.0" encoding="UTF-8" standalone="no"?>
<svg width="63mm" height="88mm" viewBox="0 0 63 88" version="1.1" id="card-25" xmlns:xlink="http://www.w3.org/1999/xlink" xmlns="http://www.w3.org/2000/svg" xmlns:svg="http://www.w3.org/2000/svg">
  <style>
    text { font-family:Helvetica; font-size:19.04px; line-height:1; fill:#000000;fill-opacity:1;stroke:none; }
   
   g.emoji path, g.emoji ellipse, g.emoji circle  { fill:none;stroke:#000000;stroke-width:1.0;stroke-linecap:round;stroke-miterlimit:4;stroke-dasharray:none;stroke-opacity:1 }
   g#card-25-formats-dark text { font-size:7px;fill:#ffffff; }
   g#card-25-thumb-up text, g#card-25-thumb-down text { font-size:7px; }
   path  { fill:none;stroke:#000000;stroke-width:1.0;stroke-linecap:butt;stroke-linejoin:miter;stroke-opacity:1; }
   path.suit { stroke:none; }
   g#card-25-border path  { fill:#808080;fill-opacity:1;stroke:#000000;stroke-width:1.5;stroke-opacity:1;stroke-miterlimit:4;stroke-dasharray:none; }
   g#card-25-lines path { fill:none;stroke:#ffffff;stroke-width:0.25;stroke-linecap:butt;stroke-linejoin:miter;stroke-miterlimit:4;stroke-dasharray:none;stroke-dashoffset:0;stroke-opacity:1 }
   g#card-25-lines-dark path { fill:none;stroke:#000000;stroke-width:0.5;stroke-linecap:butt;stroke-linejoin:miter;stroke-miterlimit:4;stroke-dasharray:none;stroke-dashoffset:0;stroke-opacity:1; }
   g#card-25-lines path.lines-center { stroke-dasharray:0.25, 0.75;}
  </style>
  <defs>
    <g id="card-25-heart-full" class="emoji" transform="translate(-7,-14)">
    <path
       d="M 7,14 C -5.5,3.5 2,-3 7,2 12,-3 19.5,3.5 7,14 Z" />
    </g>
    <g id="card-25-heart-broken" class="emoji" transform="translate(-7,-14)">
    <path
       d="M 3.1192613,0.91816809 C -0.51575331,1.1343295 -2.3043291,6.5459524 6.5727643,13.572239 
          L 10.055526,6.1948296 5.8047553,7.7606133 6.7629245,2.3188525 
          C 5.5460584,1.2839481 4.244462,0.85125639 3.1192613,0.91816809 Z" />
    <path
       d="M 11.5983,-0.03055905 C 10.626785,-0.0873111 9.5242056,0.22914926 8.4585571,0.98296888 
          L 6.9371668,5.7541131 12.359724,4.4696249 6.6548634,12.991543 
          c 0.14833,0.145957 0.2983343,0.292314 0.4533994,0.44009 
          C 17.163309,6.0077897 15.370964,0.189818 11.5983,-0.03055905 Z" />
    </g>
    
    <g id="card-25-thumb" class="emoji" >
      <path
      d="m 0.25,6 h 4 C 3.761351,3.4259714 2.2612357,0.33083438 6.0945404,0.46375698 
         9.00476,0.56467093 8.2142203,3.27992 7.75,6 c 3,0 7,1 4,3 1,1 1,1 0,2 2,1 2,3 -11.5,2 z" />
   <path
      style="stroke-width:0.5"
      d="m 4.7220858,1.807218 c 0,0 0.1746936,2.3787345 1.0299202,2.3513267 
         0.8335591,-0.026714 0.8550277,-2.3513266 0.8550277,-2.3513266 z" />
   </g>

   <g id="card-25-thumb-up" class="emoji" transform="translate(-7,-14)">
      <use xlink:href="#card-25-thumb" />
      <text text-anchor="middle" x="6" y="12">+1</text>
    </g>
    <g id="card-25-thumb-down" class="emoji" transform="translate(-7,-14)">
      <use transform="matrix(1,0,0,-1,0,14)" xlink:href="#card-25-thumb" />
      <text text-anchor="middle" x="7" y="7">-1</text>
    </g>
    
    <g id="card-25-sad" class="emoji" transform="translate(-7,-14)">
      <ellipse id="card-25-sad-right-eye" cx="9.5" cy="4" rx="0.25" ry="0.75" />
      <ellipse id="card-25-sad-left-eye" cx="4.5" cy="4" rx="0.25" ry="0.75" />
      
      <circle id="card-25-sad-face" cx="7" cy="7" r="7" />
      <path id="card-25-sad-frown" d="m 3,10 c 1.5,-3 6,-3 8,0" />
    </g>
    
    <g id="card-25-happy" class="emoji" transform="translate(-7,-14)">
      <ellipse id="card-25-happy-right-eye" cx="9.5" cy="4" rx="0.25" ry="0.75" />
      <ellipse id="card-25-happy-left-eye" cx="4.5" cy="4" rx="0.25" ry="0.75" /> 
      <circle id="card-25-happy-face" cx="7" cy="7" r="7" />
      <path id="card-25-happy-smile" d="m 3,8 c 1.5,4 6,4 8,0" />
    </g>

    
<g  id="card-25-suit-club"   transform="translate(7,7)" >
  <path  id="card-25-suit-club-flower"   style="fill:#55ff55;stroke:none" 
    d="
    M -7.347880794884119e-16,4.0 
    C 3.364647586332764,12.55703574175789 12.55703574175789,-3.364647586332763 3.4641016151377544,-2.0 
    C 9.19238815542512,-9.192388155425116 -9.192388155425123,-9.192388155425112 -3.4641016151377553,-1.9999999999999991 
    C -12.557035741757888,-3.364647586332771 -3.3646475863327683,12.557035741757888 -7.347880794884119e-16,4.0 
    Z
    " />
  <path  id="card-25-suit-club-stem"   style="fill:#55ff55;stroke:none" 
    d="
    m 0,7.0 
    h -1.5 
    c 1.5,-1.5 1.5,-7.0 1.5,-7.0 
    c 0,0 0,5.5 1.5,7.0 
    z" />
</g>


    <g id="card-25-suit-heart" >
      <path style="fill:#ff5555;stroke:none" 
            d="M 7,14 C -5.5,3.5 2,-3 7,2 12,-3 19.5,3.5 7,14 Z" />
    </g>

    <g id="card-25-suit-diamond" >
      <path style="fill:#5555ff;stroke:none" d="m 7,14 -7,-10 7,-4 7,4 z" />
    </g>

    <g id="card-25-suit-spade" >
      <path style="fill:#555555;stroke:none" d="M 7,0 C -5.5,10.5 2,17 7,12 12,17 19.5,10.5 7,0 Z" />
      <path style="fill:#555555;stroke:none" d="m 7,14 h -1.5 c 1.5,-1.5 1.5,-7.0 1.5,-7.0 c 0,0 0,5.5 1.5,7.0 z" />
    </g>
    
    <g id="card-25-lines">
      <path d="m 0,0 14,0"/>
      <path class="lines-center"  d="m 1,7 12,0" />
      <path d="m 0,14 14,0" />
    </g>
    <g id="card-25-lines-dark">
      <!-- <path d="m 0,0 14,0" id="path957-3" /> -->
      <!-- <path class="lines-center"  d="m 1,7 12,0" /> -->
      <!-- <path d="m 0,14 14,0" /> -->
    </g>

    <g id="card-25-translate-text">
      <text xml:space="preserve" x="37.45" y="34.25" text-anchor="middle" >z</text>
      <text xml:space="preserve" x="51" y="20.25" text-anchor="middle" >Z</text>
      <text xml:space="preserve" x="51" y="48.25" text-anchor="middle" >|</text>
    </g>
    <g id="card-25-translate-pics">
      <use x="37.45" y="34.25" xlink:href="#card-25-" />
      <use x="51" y="20.25" xlink:href="#card-25-" />
      <use x="51" y="48.25" xlink:href="#card-25-" />
    </g>
    <g id="card-25-formats">
      <g id="formats-up" transform="translate(44.45,6.35)">
        <use xlink:href="#card-25-lines" />
        <text transform="rotate(-90) translate(-7,-1)" xml:space="preserve" text-anchor="middle" style="font-size:3px;line-height:1;font-family:Courier;fill:#ffffff;fill-opacity:1;stroke:#ffffff;stroke-width:0;stroke-miterlimit:4;stroke-dasharray:none;stroke-opacity:1">ZULU</text>
      </g>
        <g id="card-25-formats-plain" transform="translate(30.45,20.35)">
          <use xlink:href="#card-25-lines" />
          <text transform="rotate(-90) translate(-7,-1)" xml:space="preserve" text-anchor="middle" style="font-size:3px;line-height:1;font-family:Courier;fill:#ffffff;fill-opacity:1;stroke:#ffffff;stroke-width:0;stroke-miterlimit:4;stroke-dasharray:none;stroke-opacity:1">zulu</text>
        </g>
        <g id="card-25-formats-down" transform="translate(44.45,34.35)">
          <use xlink:href="#card-25-lines" />
          <text transform="rotate(-90) translate(-7,-1)" xml:space="preserve" text-anchor="middle" style="font-size:3px;line-height:1;font-family:Courier;fill:#ffffff;fill-opacity:1;stroke:#ffffff;stroke-width:0;stroke-miterlimit:4;stroke-dasharray:none;stroke-opacity:1">pipe</text>
	</g>	  	  
        <text xml:space="preserve" text-anchor="middle" style="font-size:7px;line-height:1;font-family:Courier;fill:#ffffff;fill-opacity:1;stroke:#ffffff;stroke-width:0;stroke-miterlimit:4;stroke-dasharray:none;stroke-opacity:1" x="51.45" y="28.50" ></text>
    </g>

    <g id="card-25-formats-dark">
      <g id="card-25-formats-up" transform="translate(44.45,6.35)">
        <use xlink:href="#card-25-lines-dark" />
        <text transform="rotate(-90) translate(-7,-1)" xml:space="preserve" text-anchor="middle" style="font-size:3px;line-height:1;font-family:Courier;fill:#ffffff;fill-opacity:1;stroke:#ffffff;stroke-width:0;stroke-miterlimit:4;stroke-dasharray:none;stroke-opacity:1">ZULU</text>
      </g>
        <g id="card-25-formats-plain" transform="translate(30.45,20.35)">
          <use xlink:href="#card-25-lines-dark" />
          <text transform="rotate(-90) translate(-7,18.5)" xml:space="preserve" text-anchor="middle" style="font-size:4px;line-height:1;font-family:Courier;fill:#ffffff;fill-opacity:1;stroke:#ffffff;stroke-width:0;stroke-miterlimit:4;stroke-dasharray:none;stroke-opacity:1">zulu</text>
        </g>
        <g id="card-25-formats-down" transform="translate(44.45,34.35)">
          <use xlink:href="#card-25-lines-dark" />
          <text transform="rotate(-90) translate(-7,-1)" xml:space="preserve" text-anchor="middle" style="font-size:3px;line-height:1;font-family:Courier;fill:#ffffff;fill-opacity:1;stroke:#ffffff;stroke-width:0;stroke-miterlimit:4;stroke-dasharray:none;stroke-opacity:1">pipe</text>
	</g>	  	  
      <text xml:space="preserve" text-anchor="middle" style="fill:#000000;font-size:150%" x="51.45" y="36" ></text>
    </g>
  </defs>
  <g id="card-25-main-layer">
    <rect width="63" height="88" rx="6.35" style="fill:#808080" />
    <use opacity="0.75" transform="matrix(2,0,0,2,-14,0)"  xlink:href="#card-25-suit-heart" />
    <g transform="rotate(180,31.5,44)">
      <use opacity="0.75" transform="matrix(2,0,0,2,-14,0)"  xlink:href="#card-25-suit-heart" />      
    </g>
    <g id="card-25-border">
      <!--      <path opacity="1" id="card-25-border-card" d="m 6.35,0 h 50.8 a 6.35,6.35 45 0 1 6.35,6.35 v 76.2 a 6.35,6.35 135 0 1 -6.35,6.35 H 6.35 A 6.35,6.35 45 0 1 0,82.55 V 6.35 A 6.35,6.35 135 0 1 6.35,0" /> -->
    <rect width="63" height="88" rx="6.35" opacity="1.0" style="fill:none;stroke:#000000;stroke-width:1.5" />      
      <path id="card-25-border-separator" style="stroke-width: 1.5px; fill: none;" d="M 0,25 C 0,40 63,48 63,63" />
	<text xml:space="preserve" style="fill:#ffffff; font-size:6px;font-family:Courier;" text-anchor="middle"><textPath startOffset="30%" xlink:href="#card-25-border-separator" baseline-shift="20%"> 123   Abc</textPath></text>
	<text xml:space="preserve" style="fill:#ffffff; font-size:6px;font-family:Courier;" text-anchor="middle"><textPath startOffset="9%" xlink:href="#card-25-border-separator" baseline-shift="20%">⤓</textPath></text>
	<text xml:space="preserve" style="fill:#ffffff; font-size:6px;font-family:Courier;" text-anchor="middle"><textPath startOffset="28%" xlink:href="#card-25-border-separator" baseline-shift="20%">⤒</textPath></text>
	<text xml:space="preserve" style="fill:#ffffff; font-size:6px;font-family:Courier;" text-anchor="middle"><textPath startOffset="37%" xlink:href="#card-25-border-separator" baseline-shift="20%">↑</textPath></text>	
      <text xml:space="preserve" style="fill:#ffffff; font-size:2px;font-family:Courier;" text-anchor="middle"><textPath startOffset="30%" xlink:href="#card-25-border-separator" baseline-shift="-32%">38 01 02 03 39 30 37 00 01 02</textPath></text>	
      <text style="fill:#ffffff;fill-opacity:1;font-size:2px;font-family:Courier;" text-anchor="middle">
	<textPath startOffset="40%" xlink:href="#card-25-border-separator" baseline-shift="-32%"></textPath>
      </text>
    </g>
    <g id="card-25-upward">
      <text x="1" y="2" style="font-family:Helvetica;font-size:25.4px;"><tspan baseline-shift="-75%">25</tspan></text>
      <use xlink:href="#card-25-formats" />      
      <use xlink:href="#card-25-translate-text" />
    </g>
    <use xlink:href="#card-25-upward" transform="rotate(180,31.5,44)" />
  </g>
</svg>
