<?xml version="1.0" encoding="UTF-8" standalone="no"?>
<svg width="69mm" height="94mm" viewBox="-3 -3 69 94" version="1.1" id="card-26" xmlns:xlink="http://www.w3.org/1999/xlink" xmlns="http://www.w3.org/2000/svg" xmlns:svg="http://www.w3.org/2000/svg">
  <style>
    text { font-family:Helvetica; font-size:19.04px; line-height:1; fill:#000000;fill-opacity:1;stroke:none; }
   
   g.emoji path, g.emoji ellipse, g.emoji circle  { fill:none;stroke:#000000;stroke-width:1.0;stroke-linecap:round;stroke-miterlimit:4;stroke-dasharray:none;stroke-opacity:1 }
   g#card-26-formats-dark text { font-size:7px;fill:#ffffff; }
   g#card-26-thumb-up text, g#card-26-thumb-down text { font-size:7px; }
   path  { fill:none;stroke:#000000;stroke-width:1.0;stroke-linecap:butt;stroke-linejoin:miter;stroke-opacity:1; }
   path.suit { stroke:none; }
   g#card-26-border path  { fill:#808080;fill-opacity:1;stroke:#000000;stroke-width:1.5;stroke-opacity:1;stroke-miterlimit:4;stroke-dasharray:none; }
   g#card-26-lines path { fill:none;stroke:#ffffff;stroke-width:0.25;stroke-linecap:butt;stroke-linejoin:miter;stroke-miterlimit:4;stroke-dasharray:none;stroke-dashoffset:0;stroke-opacity:1 }
   g#card-26-lines-dark path { fill:none;stroke:#000000;stroke-width:0.5;stroke-linecap:butt;stroke-linejoin:miter;stroke-miterlimit:4;stroke-dasharray:none;stroke-dashoffset:0;stroke-opacity:1; }
   g#card-26-lines path.lines-center { stroke-dasharray:0.25, 0.75;}
  </style>
  <defs>
    <g id="card-26-heart-full" class="emoji" transform="translate(-7,-14)">
    <path
       d="M 7,14 C -5.5,3.5 2,-3 7,2 12,-3 19.5,3.5 7,14 Z" />
    </g>
    <g id="card-26-heart-broken" class="emoji" transform="translate(-7,-14)">
    <path
       d="M 3.1192613,0.91816809 C -0.51575331,1.1343295 -2.3043291,6.5459524 6.5727643,13.572239 
          L 10.055526,6.1948296 5.8047553,7.7606133 6.7629245,2.3188525 
          C 5.5460584,1.2839481 4.244462,0.85125639 3.1192613,0.91816809 Z" />
    <path
       d="M 11.5983,-0.03055905 C 10.626785,-0.0873111 9.5242056,0.22914926 8.4585571,0.98296888 
          L 6.9371668,5.7541131 12.359724,4.4696249 6.6548634,12.991543 
          c 0.14833,0.145957 0.2983343,0.292314 0.4533994,0.44009 
          C 17.163309,6.0077897 15.370964,0.189818 11.5983,-0.03055905 Z" />
    </g>
    
    <g id="card-26-thumb" class="emoji" >
      <path
      d="m 0.25,6 h 4 C 3.761351,3.4259714 2.2612357,0.33083438 6.0945404,0.46375698 
         9.00476,0.56467093 8.2142203,3.27992 7.75,6 c 3,0 7,1 4,3 1,1 1,1 0,2 2,1 2,3 -11.5,2 z" />
   <path
      style="stroke-width:0.5"
      d="m 4.7220858,1.807218 c 0,0 0.1746936,2.3787345 1.0299202,2.3513267 
         0.8335591,-0.026714 0.8550277,-2.3513266 0.8550277,-2.3513266 z" />
   </g>

   <g id="card-26-thumb-up" class="emoji" transform="translate(-7,-14)">
      <use xlink:href="#card-26-thumb" />
      <text text-anchor="middle" x="6" y="12">+1</text>
    </g>
    <g id="card-26-thumb-down" class="emoji" transform="translate(-7,-14)">
      <use transform="matrix(1,0,0,-1,0,14)" xlink:href="#card-26-thumb" />
      <text text-anchor="middle" x="7" y="7">-1</text>
    </g>
    
    <g id="card-26-sad" class="emoji" transform="translate(-7,-14)">
      <ellipse id="card-26-sad-right-eye" cx="9.5" cy="4" rx="0.25" ry="0.75" />
      <ellipse id="card-26-sad-left-eye" cx="4.5" cy="4" rx="0.25" ry="0.75" />
      
      <circle id="card-26-sad-face" cx="7" cy="7" r="7" />
      <path id="card-26-sad-frown" d="m 3,10 c 1.5,-3 6,-3 8,0" />
    </g>
    
    <g id="card-26-happy" class="emoji" transform="translate(-7,-14)">
      <ellipse id="card-26-happy-right-eye" cx="9.5" cy="4" rx="0.25" ry="0.75" />
      <ellipse id="card-26-happy-left-eye" cx="4.5" cy="4" rx="0.25" ry="0.75" /> 
      <circle id="card-26-happy-face" cx="7" cy="7" r="7" />
      <path id="card-26-happy-smile" d="m 3,8 c 1.5,4 6,4 8,0" />
    </g>

    
<g  id="card-26-suit-club"   transform="translate(7,7)" >
  <path  id="card-26-suit-club-flower"   style="fill:#208020;stroke:none" 
    d="
    M -7.347880794884119e-16,4.0 
    C 3.364647586332764,12.55703574175789 12.55703574175789,-3.364647586332763 3.4641016151377544,-2.0 
    C 9.19238815542512,-9.192388155425116 -9.192388155425123,-9.192388155425112 -3.4641016151377553,-1.9999999999999991 
    C -12.557035741757888,-3.364647586332771 -3.3646475863327683,12.557035741757888 -7.347880794884119e-16,4.0 
    Z
    " />
  <path  id="card-26-suit-club-stem"   style="fill:#208020;stroke:none" 
    d="
    m 0,7.0 
    h -1.5 
    c 1.5,-1.5 1.5,-7.0 1.5,-7.0 
    c 0,0 0,5.5 1.5,7.0 
    z" />
</g>


    <g id="card-26-suit-heart" >
      <path style="fill:#802020;stroke:none" 
            d="M 7,14 C -5.5,3.5 2,-3 7,2 12,-3 19.5,3.5 7,14 Z" />
    </g>

    <g id="card-26-suit-diamond" >
      <path style="fill:#202080;stroke:none" d="m 7,14 -7,-10 7,-4 7,4 z" />
    </g>

    <g id="card-26-suit-spade" >
      <path style="fill:#202020;stroke:none" d="M 7,0 C -5.5,10.5 2,17 7,12 12,17 19.5,10.5 7,0 Z" />
      <path style="fill:#202020;stroke:none" d="m 7,14 h -1.5 c 1.5,-1.5 1.5,-7.0 1.5,-7.0 c 0,0 0,5.5 1.5,7.0 z" />
    </g>
    
    <g id="card-26-lines">
      <path d="m 0,0 14,0"/>
      <path class="lines-center"  d="m 1,7 12,0" />
      <path d="m 0,14 14,0" />
    </g>
    <g id="card-26-lines-dark">
      <!-- <path d="m 0,0 14,0" id="path957-3" /> -->
      <!-- <path class="lines-center"  d="m 1,7 12,0" /> -->
      <!-- <path d="m 0,14 14,0" /> -->
    </g>

    <g id="card-26-translate-text">
      <text xml:space="preserve" x="37.45" y="34.25" text-anchor="middle" >&lt;</text>
      <text xml:space="preserve" x="51" y="20.25" text-anchor="middle" >{</text>
      <text xml:space="preserve" x="51" y="48.25" text-anchor="middle" >-</text>
    </g>
    <g id="card-26-translate-pics">
      <use x="37.45" y="34.25" xlink:href="#card-26-" />
      <use x="51" y="20.25" xlink:href="#card-26-" />
      <use x="51" y="48.25" xlink:href="#card-26-" />
    </g>
    <g id="card-26-formats">
      <g id="formats-up" transform="translate(44.45,6.35)">
        <use xlink:href="#card-26-lines" />
        <text transform="rotate(-90) translate(-7,-1)" xml:space="preserve" text-anchor="middle" style="font-size:3px;line-height:1;font-family:Courier;fill:#ffffff;fill-opacity:1;stroke:#ffffff;stroke-width:0;stroke-miterlimit:4;stroke-dasharray:none;stroke-opacity:1">{curly</text>
      </g>
        <g id="card-26-formats-plain" transform="translate(30.45,20.35)">
          <use xlink:href="#card-26-lines" />
          <text transform="rotate(-90) translate(-7,-1)" xml:space="preserve" text-anchor="middle" style="font-size:3px;line-height:1;font-family:Courier;fill:#ffffff;fill-opacity:1;stroke:#ffffff;stroke-width:0;stroke-miterlimit:4;stroke-dasharray:none;stroke-opacity:1">less</text>
        </g>
        <g id="card-26-formats-down" transform="translate(44.45,34.35)">
          <use xlink:href="#card-26-lines" />
          <text transform="rotate(-90) translate(-7,-1)" xml:space="preserve" text-anchor="middle" style="font-size:3px;line-height:1;font-family:Courier;fill:#ffffff;fill-opacity:1;stroke:#ffffff;stroke-width:0;stroke-miterlimit:4;stroke-dasharray:none;stroke-opacity:1">dash</text>
	</g>	  	  
        <text xml:space="preserve" text-anchor="middle" style="font-size:7px;line-height:1;font-family:Courier;fill:#ffffff;fill-opacity:1;stroke:#ffffff;stroke-width:0;stroke-miterlimit:4;stroke-dasharray:none;stroke-opacity:1" x="51.45" y="28.50" ></text>
    </g>

    <g id="card-26-formats-dark">
      <g id="card-26-formats-up" transform="translate(44.45,6.35)">
        <use xlink:href="#card-26-lines-dark" />
        <text transform="rotate(-90) translate(-7,-1)" xml:space="preserve" text-anchor="middle" style="font-size:3px;line-height:1;font-family:Courier;fill:#ffffff;fill-opacity:1;stroke:#ffffff;stroke-width:0;stroke-miterlimit:4;stroke-dasharray:none;stroke-opacity:1">{curly</text>
      </g>
        <g id="card-26-formats-plain" transform="translate(30.45,20.35)">
          <use xlink:href="#card-26-lines-dark" />
          <text transform="rotate(-90) translate(-7,18.5)" xml:space="preserve" text-anchor="middle" style="font-size:4px;line-height:1;font-family:Courier;fill:#ffffff;fill-opacity:1;stroke:#ffffff;stroke-width:0;stroke-miterlimit:4;stroke-dasharray:none;stroke-opacity:1">less</text>
        </g>
        <g id="card-26-formats-down" transform="translate(44.45,34.35)">
          <use xlink:href="#card-26-lines-dark" />
          <text transform="rotate(-90) translate(-7,-1)" xml:space="preserve" text-anchor="middle" style="font-size:3px;line-height:1;font-family:Courier;fill:#ffffff;fill-opacity:1;stroke:#ffffff;stroke-width:0;stroke-miterlimit:4;stroke-dasharray:none;stroke-opacity:1">dash</text>
	</g>	  	  
      <text xml:space="preserve" text-anchor="middle" style="fill:#000000;font-size:150%" x="51.45" y="36" ></text>
    </g>
  </defs>
  <g id="card-26-main-layer"><!-- 63 x 88 -->
    <rect x="-3" y="-3" width="69" height="94" style="fill:#808080" />
    <use opacity="1" transform="matrix(2,0,0,2,-6,-6)"  xlink:href="#card-26-suit-heart" />
    <use xlink:href="#card-26-formats" />
    <g transform="rotate(180,31.5,44)">
      <use opacity="1" transform="matrix(2,0,0,2,-6,-6)"  xlink:href="#card-26-suit-heart" />
      <use xlink:href="#card-26-formats" />      
    </g>
    <g id="card-26-border">
      <!-- <rect x="-1.5" y="-1.5" width="66" height="91" rx="6.35" opacity="1.0" style="fill:none;stroke:#000000;stroke-width:3.0" /> -->
      <!--      <path id="card-26-border-separator" style="stroke-width: 3.0px; fill: none;" d="M -1.5,25 C -1.5,40 64.5,48 64.5,63" /> -->
      <path id="card-26-border-separator" style="stroke:#ffffff;stroke-width:1.75;fill:none;" d="M -3.0,30 C 18.5,30 44.5,58 66,58" />
      <!--
      <text xml:space="preserve" style="fill:#ffffff; font-size:6px;font-family:Courier;" text-anchor="middle"><textPath startOffset="30%" xlink:href="#card-26-border-separator" baseline-shift="20%"> 123   Abc</textPath></text>
      <text xml:space="preserve" style="fill:#ffffff; font-size:6px;font-family:Courier;" text-anchor="middle"><textPath startOffset="9%" xlink:href="#card-26-border-separator" baseline-shift="20%">⤓</textPath></text>
      <text xml:space="preserve" style="fill:#ffffff; font-size:6px;font-family:Courier;" text-anchor="middle"><textPath startOffset="28%" xlink:href="#card-26-border-separator" baseline-shift="20%">⤒</textPath></text>
      <text xml:space="preserve" style="fill:#ffffff; font-size:6px;font-family:Courier;" text-anchor="middle"><textPath startOffset="37%" xlink:href="#card-26-border-separator" baseline-shift="20%">↑</textPath></text>	
      <text xml:space="preserve" style="fill:#000000; font-size:2px;font-family:Courier;" text-anchor="middle"><textPath startOffset="30%" xlink:href="#card-26-border-separator" baseline-shift="-32%">38 01 02 03 39 30 37 00 01 02</textPath></text>	-->
    </g> 
    <g id="card-26-upward">
      <text x="14" y="17" style="font-family:Helvetica;font-size:20px;fill:#fff" text-anchor="middle">26</text>
      <use xlink:href="#card-26-translate-text" />
    </g>
    <use xlink:href="#card-26-upward" transform="rotate(180,31.5,44)" />
    <rect x="0" y="0" width="63" height="88" style="stroke:#f00;stroke-width:0.25;fill:none;" />
    <!-- 57 x 82 -->
    <rect x="3" y="3" width="57" height="82" style="stroke:#f00;stroke-width:0.25;fill:none;" /> 
  </g>
</svg>
