<?xml version="1.0" encoding="UTF-8" standalone="no"?>
<!-- Created with Inkscape (http://www.inkscape.org/) -->

<svg
   width="2.5in"
   height="3.5in"
   viewBox="0 0 63.5 88.9"
   version="1.1"
   id="svg1547"
   inkscape:version="1.1.2 (b8e25be8, 2022-02-05)"
   sodipodi:docname="99.svg"
   xmlns:inkscape="http://www.inkscape.org/namespaces/inkscape"
   xmlns:sodipodi="http://sodipodi.sourceforge.net/DTD/sodipodi-0.dtd"
   xmlns:xlink="http://www.w3.org/1999/xlink"
   xmlns="http://www.w3.org/2000/svg"
   xmlns:svg="http://www.w3.org/2000/svg">
  <sodipodi:namedview
     id="namedview1549"
     pagecolor="#ffffff"
     bordercolor="#666666"
     borderopacity="1.0"
     inkscape:pageshadow="2"
     inkscape:pageopacity="0.0"
     inkscape:pagecheckerboard="0"
     inkscape:document-units="mm"
     showgrid="false"
     units="in"
     inkscape:zoom="2.0170388"
     inkscape:cx="87.008738"
     inkscape:cy="153.44276"
     inkscape:window-width="1312"
     inkscape:window-height="855"
     inkscape:window-x="386"
     inkscape:window-y="35"
     inkscape:window-maximized="0"
     inkscape:current-layer="layer1" />
  <defs
     id="defs1544">
    <path
        transform="translate(-4.5,-16)"
        id="heart"
        style="fill:#ff5555;fill-opacity:1;stroke:#000000;stroke-width:0.5;stroke-linecap:butt;stroke-linejoin:miter;stroke-miterlimit:4;stroke-dasharray:none;stroke-opacity:1"
        d="M 2,6 A 4,4 0,0,1 10,6 A 4,4 0,0,1 18,6 Q 18,12 10,18 Q 2,12 2,6 z" />
       <path
          id="club"
          d="m 7.5,-8 c 0,0 2.375,-1.9 2.375,-4.534 
          0,-1.542 -1.369,-4.102 -4.534,-4.102 -3.165,0 -4.534,2.561 
          -4.534,4.102 0,2.634 2.375,4.534 2.375,4.534 
          -2.638,-2.055 -7.341,-0.652 -7.341,3.455 0,2.056 1.68,4.318 
          4.318,4.318 3.165,0 4.534,-3.455 4.534,-3.455 0,0 0.402,3.938 
          -1.943,6.046 h 5.182 c -2.345,-2.107 -1.943,-6.046 -1.943,-6.046 0,0 
          1.369,3.455 4.534,3.455 2.639,0 4.318,-2.263 4.318,-4.318 0,-4.107 
          -4.703,-5.51 -7.341,-3.455 z"
          inkscape:connector-curvature="0"
          style="fill:#55ff55;fill-opacity:1;stroke:#000000;stroke-width:0.5;stroke-linecap:butt;stroke-linejoin:miter;stroke-miterlimit:4;stroke-dasharray:none;stroke-opacity:1"
          />

          <path
          style="fill:#5555ff;fill-opacity:1;stroke:#000000;stroke-width:0.5px;stroke-linecap:butt;stroke-linejoin:miter;stroke-opacity:1"
          d="m 5.29,1.75 -8,-12 8,-5 8,5 z"
          id="diamond"
          sodipodi:nodetypes="ccccc" />

          <path
          transform="matrix(0.2,0,0,0.2,-2.5,-15)"
          style="fill:#555555;fill-opacity:1;stroke:#000000;stroke-width:2.5px;stroke-linecap:butt;stroke-linejoin:miter;stroke-opacity:1"
     d="M 13.11245,27.125959 C -17.909819,53.625012 12.262291,72.924921 36.790147,60.273007 36.664549,66.669865 30.803298,72.89278 27.038568,78.719014 H 53.521299 C 49.644115,73.056394 42.910723,66.688991 42.933293,60.273007 67.975387,72.300766 94.607423,51.326226 66.82064,27.125959 52.331625,13.835263 43.274784,3.4940827 39.861402,-0.02114467 36.747892,3.4063017 28.453788,13.484673 13.111822,27.125959 Z"
      id="spade"
     sodipodi:nodetypes="ccccccccc" />
  </defs>
  <g
     inkscape:label="Layer 1"
     inkscape:groupmode="layer"
     id="layer1">
  <path
       id="border"
       d="m 6.35,0 h 50.8 a 6.35,6.35 45 0 1 6.35,6.35 v 76.2 a 6.35,6.35 135 0 1 -6.35,6.35 H 6.35 A 6.35,6.35 45 0 1 0,82.55 V 6.35 A 6.35,6.35 135 0 1 6.35,0 Z"
       style="fill:#aeaeae;fill-opacity:1;stroke:#000000;stroke-width:0.5;stroke-opacity:1;stroke-miterlimit:4;stroke-dasharray:none" />
       <g
	id="upward">
      <g id="translate">
	<text
            xml:space="preserve"
            style="font-size:19.05px;line-height:1;font-family:sans-serif;fill:#9500ec;fill-opacity:1;stroke:#000000;stroke-width:0.5;stroke-miterlimit:4;stroke-dasharray:none;stroke-opacity:1"
            x="31.75"
            y="31.75"
            id="translate">${translate}</text>
	<text
            xml:space="preserve"
            style="font-size:19.05px;line-height:1;font-family:sans-serif;fill:#9500ec;fill-opacity:1;stroke:#000000;stroke-width:0.5;stroke-miterlimit:4;stroke-dasharray:none;stroke-opacity:1"
            x="44.45"
            y="19.05"
            id="translate-up">${translate_up}</text>
	<text
            xml:space="preserve"
            style="font-size:19.05px;line-height:1;font-family:sans-serif;fill:#9500ec;fill-opacity:1;stroke:#000000;stroke-width:0.5;stroke-miterlimit:4;stroke-dasharray:none;stroke-opacity:1"
            x="44.45"
            y="44.45"
            id="translate-down">${translate_down}</text>
      </g>
      <g
         id="suite-number"
         transform="translate(6.35,19.05)">
	<use
	    x="0"
	    y="0"
	    xlink:href="#${suit}"
	    id="suit"
	    width="100%"
	    height="100%" />
	
        <text
           xml:space="preserve"
           style="font-style:normal;font-variant:normal;font-weight:normal;font-stretch:normal;font-size:19.05px;line-height:1.25;font-family:'Helvetica Neue';-inkscape-font-specification:'Helvetica Neue';fill:#ffffff;fill-opacity:1;stroke:#000000;stroke-width:0.5;stroke-miterlimit:4;stroke-dasharray:none;stroke-opacity:1"
           x="0"
           y="0"
           id="number">${number}</text>
      </g>
    </g>
    <path
       style="fill:none;stroke:#000000;stroke-width:0.5;stroke-linecap:round;stroke-linejoin:miter;stroke-miterlimit:4;stroke-dasharray:none;stroke-opacity:1"
       d="M 0,25.4 C 0,44.45 63.5,44.45 63.5,63.5"
       id="separator"
       sodipodi:nodetypes="cc" />
    <use
       x="0"
       y="0"
       xlink:href="#upward"
       id="use29757"
       transform="rotate(180,31.75,44.45)"
       width="100%"
       height="100%" />
        </g>
</svg>
